<svg version="1" xmlns="http://www.w3.org/2000/svg" width="1333.333" height="1333.333" viewBox="0 0 1000.000000 1000.000000"><path d="M566.5 90.4c-31.6 10.3-71.8 47-101.1 92.3-3.1 4.8-7.3 11.2-9.2 14.2-3.5 5.4-3.5 5.4-5.2 3.3-1.7-2-1.8-1.9-3 5.6-.7 4.2-1.9 9.3-2.7 11.2-1.1 2.7-4.9 16.2-6.3 22.5-1 4.7.8 2.4 4.7-5.5 4.4-9.3 17.6-29.9 25.1-39.2 13-16.2 39.3-44.9 46.5-50.7 11.7-9.4 34.3-22.3 47.8-27.2 16.6-6.1 23-5.9 30.6.6 5.1 4.3 8.3 12.1 8.3 20 0 6.2-3.4 31-5.6 40.4-.8 3.5-1.3 6.6-1.1 6.8.6.5 6.4-13.6 9.8-23.5 9.6-28.2 9.2-53.2-.9-64.4-2-2.3-5.9-5.2-8.7-6.4-6.9-3.3-19.1-3.3-29 0zM423.5 188.4c-5.8 2.6-13.5 9.7-18.7 17.3-10.5 15.6-15.8 33-16.5 53.8-.5 13.8-1.1 15.5-5.8 15.5-2.8 0-41.6 12.8-52.5 17.4-44 18.3-90.4 51.4-123.3 88.1l-7.2 7.9 8-6.2c36.8-28.8 82.7-55.2 127-73 25.2-10.1 52.2-18.2 60.9-18.2 3.8 0 3.8 0 3.2-3.3-3-14.1-3.4-25.5-1.2-36.9 2.1-11 10.6-32.5 16-40.5 10.7-16 12.7-17.8 23.6-22.2 2.1-.8 1.4-1-4-1-3.6 0-7.8.6-9.5 1.3zM590.5 211.1c-2.2.4-6.7 1.3-10.1 1.8-3.3.6-11 2.7-17 4.7-10.9 3.6-28.1 11-27.3 11.8.2.3 3-.4 6.2-1.5 6.4-2.2 25-4.5 43.7-5.4 11-.6 13.3-.4 19.3 1.5 5.7 1.8 6.7 2.4 6.7 4.4 0 5-23.7 31.5-38.5 43-9.8 7.7-38.2 26.4-49 32.3-4.4 2.4-7.1 4.2-6 3.9 1.1-.2 3.8-.7 6-1.1 6.1-1 33.8-10.2 45-15l10-4.3 9.5 1.3c21.1 2.9 25.8 3.8 37.4 7.2 50.5 14.6 111.4 45.4 156.6 79.2 4.1 3.1 8.4 6.3 9.5 7.1 3.7 2.7-8.2-10.3-18.1-19.8-17.6-16.9-50.5-41.6-65.6-49.3-2.4-1.2-4.5-2.5-4.8-2.9-.3-.4-2.3-1.6-4.5-2.7s-8.3-4.2-13.5-6.8c-19-9.5-50.9-21.1-71.8-26.1-5.7-1.3-10.8-2.7-11.3-3-.5-.3 1.3-2.2 3.9-4.3 15.3-12.1 23.5-28.8 20.2-41-1.6-6.1-8.3-12.5-15.1-14.5-5.6-1.7-14.8-1.9-21.4-.5zM803.6 394.1c1.6 2 3.1 3.4 3.3 3.2.3-.2-1-1.8-2.9-3.6l-3.4-3.2 3 3.6zM191.5 397c-.3.5-.1 1 .4 1 .6 0 1.1-.5 1.1-1 0-.6-.2-1-.4-1-.3 0-.8.4-1.1 1zM808 399.9c0 .5.7 1.5 1.7 2.2 1.5 1.3 1.5 1.2.4-.9-1.2-2.3-2.1-2.8-2.1-1.3zM814 408c0 .5.5 1 1.1 1 .5 0 .7-.5.4-1-.3-.6-.8-1-1.1-1-.2 0-.4.4-.4 1zM821 417.4c0 .2.8 1 1.8 1.7 1.5 1.3 1.6 1.2.3-.4s-2.1-2.1-2.1-1.3zM828.2 428c.7 1.1 1.7 2 2.2 2 .5 0 .1-.9-.9-2s-2-2-2.2-2c-.2 0 .2.9.9 2zM166.4 432.2c-1.5 2.3-3.9 6.1-5.4 8.3-3.9 5.8-9.4 16.2-7.9 14.7.7-.6 2.7-3.6 4.4-6.6 5.8-10.3 10.7-18.1 11.8-18.8.6-.4.9-1 .5-1.3-.4-.4-1.9 1.3-3.4 3.7zM833 434.9c0 .6.4 1.3 1 1.6.6.3.7-.1.4-.9-.7-1.8-1.4-2.1-1.4-.7zM837.5 442.5c1.5 2.7 3.5 6.1 4.5 7.5.9 1.4 2 3.4 2.4 4.4.3 1 .9 1.7 1.2 1.4.6-.7-5.8-12.3-8.7-15.8-1.5-1.9-1.4-1.3.6 2.5zM847.4 459.7c2.8 5.3 4.7 6.9 2.4 2-1.2-2.6-2.6-4.7-3-4.7-.5 0-.2 1.2.6 2.7zM146.5 466c-.9 1.6-1.3 3-1.1 3 .3 0 1.2-1.4 2.1-3 .9-1.7 1.3-3 1.1-3-.3 0-1.2 1.3-2.1 3zM852 468c0 .5.5 1 1.1 1 .5 0 .7-.5.4-1-.3-.6-.8-1-1.1-1-.2 0-.4.4-.4 1zM132.6 493.7c-.6 1.4-.5 1.5.5.6.7-.7 1-1.5.7-1.8-.3-.3-.9.2-1.2 1.2zM130.6 498.6c-1 2.5.1 2.9 1.4.5.6-1.2.7-2.1.1-2.1-.5 0-1.2.7-1.5 1.6zM867 498.9c0 .6.4 1.3 1 1.6.6.3.7-.1.4-.9-.7-1.8-1.4-2.1-1.4-.7zM126.7 507.8c-4.2 9-13 32.2-12.5 32.7.3.3 1.7-2.8 3.2-6.7 4.3-11.2 8.5-21.8 10.7-26.7 1.1-2.4 1.8-4.5 1.6-4.7-.2-.2-1.5 2.2-3 5.4zM870 504.9c0 .6.4 1.3 1 1.6.6.3.7-.1.4-.9-.7-1.8-1.4-2.1-1.4-.7zM871 508.4c0 .4 1.1 3.2 2.5 6.2s2.5 5.8 2.5 6.3c0 .4 1.6 4.4 3.5 8.8 1.9 4.5 3.5 8.8 3.5 9.7 0 .9.4 1.6 1 1.6 1 0-2.8-11.2-8.2-24-3-7.1-4.8-10.4-4.8-8.6zM275.5 528.9c-17.6 5-32.8 19-38.6 35.5-3.7 10.7-4.5 20.1-2.5 30.2 4.4 22.7 20.5 40.2 42.2 45.9 7 1.8 19.7 2.1 27.4.5 20.3-4.3 38.6-22.4 43.5-43.2 7.1-30.3-11.9-61.6-42-69.3-7.9-2-22.4-1.8-30 .4zM694 528.6c-15 3.9-30.3 16.3-36.8 29.7-9.2 19.2-8 41.1 3.4 58.2 7.5 11.4 21.7 21.3 34.8 24.4 6.8 1.7 21 1.5 28-.4 25.3-6.7 43-29.7 43-56 0-26.2-17.9-49.4-43-56-7.3-1.9-22.1-1.9-29.4.1zM884.1 542.7c0 .5 1.1 3 2.5 5.8 2.4 5.1 2.3 2.9-.2-3.2-1.3-3-2.5-4.3-2.3-2.6zM464 601.6c-10.5 1.3-20.9 4.1-32.3 9-7.1 3-13.2 5.4-13.6 5.4-1.4 0-18.2 10.9-24.6 16-3.5 2.8-11.9 9.7-18.7 15.5-18.5 15.8-32.9 22.4-46.2 21.2-8.2-.7-42 1.9-48.2 3.7-12.4 3.8-18.7 13.1-17 25 1.5 9.8 20.7 27.1 41.6 37.3 9.5 4.7 13 7.1 20 13.7 21.2 20 51 37.2 78 45.2 45 13.2 58.6 15.4 97 15.4 37.4.1 52-2.2 95.1-14.9 30.3-8.9 59.1-25.7 82.4-48.2 4.3-4.1 8.5-6.9 14.9-9.8 18.3-8.4 38.3-24.7 42.8-34.7 5.3-12.1-2.3-25.3-16.7-29.3-5.6-1.6-40-4-47.1-3.4-13.5 1.2-27.7-5.4-46.9-21.8-25.8-21.9-32.5-26.3-54.5-35.6s-23.3-9.5-66-9.8c-20.1-.2-38.1-.1-40 .1zM92 615.1c0 1.2-.7 4.8-1.6 8.1-.8 3.3-1.3 6.5-1.1 7.1.2.6 1.1-2.3 2.1-6.4 1-4 2-8.2 2.2-9.2.3-.9.1-1.7-.5-1.7s-1.1.9-1.1 2.1zM908.3 628.2c0 2.1.4 3.8.9 3.8.9 0 .9-1.5-.2-5-.7-2.2-.8-2-.7 1.2zM87.2 637.7c-3.5 17.7-7.2 38.7-7.1 40.2.1 1.9 7.4-33.9 8.3-40.9.9-6.8.1-6.3-1.2.7zM909.6 636.6c.4 2 1.3 5.7 2 8.3l1.4 4.6-.5-4.3c-1-9.1-1.7-12.2-2.6-12.2-.6 0-.7 1.5-.3 3.6z"/><path d="M913 651.7c.1 1 .7 4.4 1.4 7.5.8 3.1 1.2 5.9 1 6.1-.7.6 3.5 24.8 4.7 27.2l.9 2-.4-2c-.3-1.1-1.2-7.2-2.1-13.5-2.8-19.9-5.6-34-5.5-27.3zM78.5 686.2c-2.2 13.3-3.8 28.5-5.1 47.8-.3 4.7-.9 14.1-1.5 21-1.6 21.3-3.1 66.2-2.4 73 .6 6.7 3 18 4.5 21.5.4 1.1 1.4 3.6 2.1 5.5 3.6 9.5 16.3 25.1 33.3 40.8 4.7 4.3 21.6 16.2 24.9 17.5.9.3 4.8 2.6 8.5 5 3.7 2.5 11.9 7 18.2 10.2 6.3 3.1 12.6 6.3 14 7 4.2 2.2 28.2 11.5 29.7 11.5.7 0 2.1.4 3.1 1 2.8 1.6 22.5 8.2 24.5 8.2.9-.1 1.7.4 1.7.9 0 .6.4.8.8.5.4-.2 4.1.7 8.2 2 17 5.7 48.5 13.2 75 18 25.8 4.6 73.3 10.6 83.7 10.5 3.4 0 6.5.4 6.8.8.3.5 2.3.7 4.5.4 2.1-.3 4.7-.3 5.6.1.9.4 7.8.8 15.3 1.1 7.5.2 20.4.9 28.6 1.7 20.8 1.8 96.7 1.7 114-.1 7.2-.7 13.9-1.4 15.1-1.5 1.1-.1 2.5-.5 3.1-.9.6-.4 4.9-1.1 9.5-1.6 24.4-2.7 56.6-7 69.3-9.2 28.8-5.1 66.8-13.9 82.3-19.3 3.9-1.4 7.2-2.2 7.2-1.9 0 .3.7 0 1.5-.7s1.5-1 1.5-.7c0 .6 33.1-10.7 44-15.1 20.7-8.3 51.6-25.1 70-38 3.6-2.5 12.4-10.5 19.5-17.7 17.7-17.8 26-32 28.7-49 1.4-9.2.3-69.2-1.7-91.5-.9-9.1-1.8-20.4-2.2-25.3-.3-4.8-.9-8.7-1.3-8.7-1.1 0-5.1 4.6-4.5 5.2.5.5-.9 6.6-5 21.3-.8 2.7-1.4 6.6-1.3 8.6 0 5.9-12.1 34.2-22.4 52-12.7 21.9-33.7 44.6-53.8 58.1-11 7.4-37.4 22.8-38.9 22.8-.4 0-3.4 1.3-6.7 2.9-3.2 1.5-7.7 3.4-9.9 4.2-2.2.7-4.8 2-5.7 2.8-1 .8-1.8 1.1-1.8.6 0-.4-.7-.2-1.5.5s-1.5 1-1.5.8c0-.3-3.6.7-8 2.2-4.3 1.5-8.3 2.4-8.7 2-.4-.4-6.9 1.1-14.3 3.2s-14.8 3.9-16.3 4c-1.5.1-3 .5-3.3 1-.3.4-1 .6-1.5.2-.5-.3-1.6 0-2.4.6-.8.6-1.9.9-2.4.6-.5-.4-1.3-.1-1.6.5-.4.5-1.4.8-2.2.5-.8-.3-2-.3-2.6.1-.6.4-2 .8-3.2.9-1.1.1-4.2.7-6.8 1.3-2.7.6-5.2.9-5.7.6-.5-.3-1.2 0-1.5.6-.4.6-1.8.8-3 .5-1.3-.3-2.7-.1-3.1.5-.3.6-1.5.9-2.5.6-1-.3-2.2-.1-2.5.5-.3.5-1.5.8-2.5.5-1-.3-2.1-.2-2.4.3-.2.4-2.1.7-4.2.8-2.1 0-10.3 1-18.1 2.1-7.9 1.2-15.2 1.9-16.2 1.6-1-.3-2.1-.1-2.5.5-.4.6-2.3 1.1-4.3 1-2 0-7.5.4-12.2.9-15.2 1.7-57.8 4.4-59.4 3.8-.8-.3-1.8-.2-2.1.3-.7 1.1-66.8 1.4-67.9.3-.3-.4-2.8-.6-5.4-.4-2.6.1-13.5-.5-24.2-1.3s-25.3-1.7-32.5-2.1c-7.1-.3-13.4-1-13.9-1.5-.4-.4-2.2-.6-4-.3-1.7.2-11.6-.7-22.1-2.2-10.4-1.5-21-2.8-23.5-3-7.6-.5-15-1.7-15.6-2.6-.2-.4-1.1-.6-1.9-.2-.9.3-2.1 0-2.9-.6-.7-.6-1.6-.8-1.9-.5-.3.4-1.4.3-2.4-.1-1.6-.6-3.7-1-11.9-1.9-1.1-.1-2.5-.5-3.1-.9-.6-.4-1.8-.4-2.6-.1-.8.3-1.8.1-2.1-.4-.3-.6-1.5-.8-2.5-.5-1 .3-2.2 0-2.5-.6-.4-.5-1.3-.8-2.1-.4-.9.3-2.2 0-3-.7-.8-.7-1.5-.9-1.5-.5s-.7.2-1.5-.5c-.8-.6-1.8-.9-2.3-.6-.5.3-7.5-1.2-15.5-3.4-9-2.3-14.9-3.4-15.3-2.8-.3.5-1.3.6-2.3.3-2.3-1-11.2-3.6-13.6-4-1.1-.2-2.1-.4-2.2-.5-.2-.2-.6-.3-1-.4-.5-.1-1.4-.5-2-.9-.7-.5-1.3-.5-1.3-.1s-.8 0-1.7-.9c-1.5-1.3-3.4-2-8.3-3.2-.3-.1-1.2-.5-2-.8-.8-.3-4.4-1.6-8-2.8-3.6-1.1-6.9-2.4-7.5-2.7-.5-.4-1.4-.7-2-.9-2.2-.4-12.2-5-14.6-6.6-1.5-1-3.6-1.9-4.7-2.2-1.1-.2-3.8-1.5-6.1-2.9-2.3-1.5-6.7-3.8-9.9-5.2-6.8-3.1-6.3-2.8-14.3-8.3-25.6-17.7-46.3-38.7-60.5-61.4-7.1-11.3-12.7-21.7-11.8-21.7.3 0-.3-1.2-1.4-2.8-3.1-4.6-5.3-10.1-5.7-14.5-.2-2.3-1.3-7.1-2.4-10.6-1.2-3.5-2.1-7.3-2.1-8.5 0-1.1-.7-3.4-1.5-5-.9-1.6-1.3-3.1-1-3.4.3-.3 0-1.1-.6-1.8-.6-.8-.9-2-.6-2.9.4-.8.2-1.7-.4-2.1-.6-.3-.8-1.2-.5-2 .3-.7.1-1.6-.5-2-.6-.3-.8-1.2-.5-2 .3-.7-.2-2.6-1.1-4.2-1.5-2.5-1.5-3.6-.1-12.2.9-5.2 1.9-10.3 2.3-11.3.4-1 .3-1.7-.3-1.7s-1.4 1.5-1.7 3.2zM921.2 698c0 1.9.2 2.7.5 1.7.2-.9.2-2.5 0-3.5-.3-.9-.5-.1-.5 1.8zM921.8 705.5c-.2 1.9 0 3.5.4 3.5s.8-1.6.8-3.5-.2-3.5-.4-3.5-.6 1.6-.8 3.5z"/></svg>